<svg height="368pt" viewBox="-18 0 368 368.44459" width="368pt" xmlns="http://www.w3.org/2000/svg"><path d="m239.15625 295.800781c-1.988281 0-3.960938-.0625-5.914062-.1875-3.761719-.234375-6.625-3.476562-6.386719-7.238281s3.445312-6.609375 7.238281-6.386719c1.675781.105469 3.363281.160157 5.0625.160157 43.882812 0 79.582031-35.699219 79.582031-79.582032 0-38.207031-60.503906-135.605468-79.585937-165.367187-9.148438 14.269531-27.828125 44.09375-44.714844 75.433593-1.789062 3.3125-5.933594 4.550782-9.25 2.769532-3.316406-1.789063-4.558594-5.929688-2.773438-9.25 23.671876-43.917969 50.78125-84.859375 51.054688-85.269532 2.527344-3.804687 8.847656-3.804687 11.375 0 3.574219 5.386719 87.546875 132.464844 87.546875 181.679688 0 51.414062-41.824219 93.238281-93.234375 93.238281zm0 0"/><path d="m123.101562 368.445312c-67.753906 0-122.878906-55.125-122.878906-122.878906 0-65.402344 112.40625-235.5 117.191406-242.710937 2.527344-3.808594 8.847657-3.808594 11.375 0 4.785157 7.210937 117.191407 177.308593 117.191407 242.710937 0 67.753906-55.121094 122.878906-122.878907 122.878906zm0-349.300781c-23.179687 35.972657-109.226562 173.101563-109.226562 226.421875 0 60.226563 49 109.226563 109.226562 109.226563 60.226563 0 109.226563-49 109.226563-109.226563 0-53.332031-86.039063-190.441406-109.226563-226.421875zm0 0"/><path d="m123.101562 326.777344c-3.769531 0-6.824218-3.054688-6.824218-6.824219 0-3.773437 3.054687-6.828125 6.824218-6.828125 37.253907 0 67.5625-30.308594 67.5625-67.558594 0-3.773437 3.054688-6.828125 6.824219-6.828125s6.828125 3.054688 6.828125 6.828125c0 44.777344-36.433594 81.210938-81.214844 81.210938zm0 0"/><path d="m280.117188 184.128906c-2.59375 0-5.070313-1.492187-6.214844-4.003906l-4-8.796875c-1.5625-3.433594-.042969-7.480469 3.386718-9.039063 3.421876-1.5625 7.472657-.046874 9.039063 3.382813l4 8.796875c1.558594 3.433594.042969 7.480469-3.386719 9.042969-.917968.417969-1.875.617187-2.824218.617187zm0 0"/><path d="m266.441406 154.042969c-2.59375 0-5.074218-1.492188-6.21875-4.007813l-20.453125-45.007812c-1.5625-3.429688-.042969-7.476563 3.386719-9.035156 3.414062-1.566407 7.476562-.050782 9.039062 3.386718l20.457032 45.007813c1.558594 3.429687.039062 7.476562-3.390625 9.035156-.914063.417969-1.871094.621094-2.820313.621094zm0 0"/></svg>