<svg height="427pt" viewBox="0 -86 427.03531 427" width="427pt" xmlns="http://www.w3.org/2000/svg"><path d="m273.542969 254.296875h-201.835938c-39.539062 0-71.707031-32.167969-71.707031-71.703125 0-37.546875 29.125-68.523438 65.964844-71.464844 12.765625-50.574218 58.800781-86.738281 111.460937-86.738281 63.386719 0 114.953125 51.566406 114.953125 114.953125 0 1.199219-.019531 2.390625-.066406 3.578125 22.941406 7.898437 38.511719 29.378906 38.511719 54.085937.003906 31.589844-25.695313 57.289063-57.28125 57.289063zm-96.113281-216.253906c-47.996094 0-89.742188 34.085937-99.269532 81.042969-.644531 3.171874-3.433594 5.457031-6.664062 5.46875-31.894532.117187-57.839844 26.152343-57.839844 58.039062 0 32.011719 26.039062 58.050781 58.054688 58.050781h201.832031c24.058593 0 43.628906-19.574219 43.628906-43.632812 0-20.296875-13.796875-37.738281-33.566406-42.410157-3.273438-.777343-5.5-3.828124-5.230469-7.1875.210938-2.664062.351562-5.351562.351562-8.070312 0-55.855469-45.4375-101.300781-101.296874-101.300781zm0 0"/><path d="m381.589844 179.175781h-27.640625c-3.773438 0-6.828125-3.054687-6.828125-6.824219 0-3.773437 3.054687-6.828124 6.828125-6.828124h27.640625c17.53125 0 31.792968-14.261719 31.792968-31.792969 0-14.789063-10.054687-27.496094-24.453124-30.898438-3.273438-.777343-5.5-3.828125-5.234376-7.1875.160157-1.996093.265626-4.011719.265626-6.046875 0-41.867187-34.058594-75.925781-75.925782-75.925781-13.144531 0-26.097656 3.410156-37.453125 9.863281-3.285156 1.867188-7.445312.710938-9.304687-2.566406-1.867188-3.277344-.71875-7.445312 2.558594-9.308594 13.414062-7.617187 28.695312-11.6406248 44.199218-11.6406248 49.394532 0 89.582032 40.1835938 89.582032 89.5781248 0 .542969-.007813 1.082032-.023438 1.621094 17.59375 6.566406 29.441406 23.3125 29.441406 42.511719 0 25.058593-20.386718 45.445312-45.445312 45.445312zm0 0"/><path d="m42.535156 189.445312c-3.773437 0-6.828125-3.058593-6.828125-6.828124 0-24.464844 19.90625-44.375 44.375-44.375 3.773438 0 6.824219 3.058593 6.824219 6.828124 0 3.769532-3.050781 6.828126-6.824219 6.828126-16.941406 0-30.722656 13.777343-30.722656 30.71875 0 3.769531-3.050781 6.828124-6.824219 6.828124zm0 0"/></svg>