<svg height="423pt" viewBox="0 -27 423.13899 423" width="423pt" xmlns="http://www.w3.org/2000/svg"><path d="m266.125 255.753906c-54.40625 0-98.664062-44.265625-98.664062-98.667968 0-54.40625 44.257812-98.671876 98.664062-98.671876s98.667969 44.265626 98.667969 98.671876c0 54.402343-44.261719 98.667968-98.667969 98.667968zm0-183.6875c-46.871094 0-85.011719 38.136719-85.011719 85.015625 0 46.878907 38.140625 85.015625 85.011719 85.015625s85.011719-38.136718 85.011719-85.015625c0-46.878906-38.136719-85.015625-85.011719-85.015625zm0 0"/><path d="m210.90625 253.320312c-7.816406 0-15.632812-1.707031-22.835938-5.136718l-24.824218-11.824219c-10.554688-5.019531-22.679688-5.121094-33.308594-.296875l-25.351562 11.523438c-16.847657 7.65625-36.074219 6.101562-51.453126-4.15625l-13.019531-8.679688c-6.863281-4.574219-14.839843-6.992188-23.082031-6.992188h-10.203125c-3.773437 0-6.828125-3.058593-6.828125-6.828124 0-3.769532 3.054688-6.824219 6.828125-6.824219h10.203125c10.949219 0 21.546875 3.210937 30.65625 9.28125l13.019531 8.679687c11.433594 7.617188 25.703125 8.777344 38.226563 3.089844l25.351562-11.523438c14.300782-6.503906 30.644532-6.363281 44.828125.398438l24.832031 11.824219c11.21875 5.34375 24.460938 5.054687 35.441407-.753907l19.71875-10.4375c9.207031-4.871093 19.574219-7.449218 29.996093-7.449218h7.53125c3.773438 0 6.828126 3.058594 6.828126 6.828125s-3.054688 6.824219-6.828126 6.824219h-7.53125c-8.203124 0-16.363281 2.027343-23.609374 5.867187l-19.71875 10.433594c-7.730469 4.09375-16.292969 6.152343-24.867188 6.152343zm0 0"/><path d="m210.90625 197.382812c-.367188 0-.730469-.003906-1.089844-.007812-3.765625-.082031-6.757812-3.199219-6.683594-6.96875.078126-3.765625 3.316407-6.539062 6.964844-6.6875 6.707032.167969 13.375-1.441406 19.285156-4.574219l19.722657-10.441406c9.210937-4.871094 19.585937-7.449219 29.992187-7.449219h7.535156c3.773438 0 6.824219 3.058594 6.824219 6.828125s-3.050781 6.824219-6.824219 6.824219h-7.535156c-8.191406 0-16.351562 2.027344-23.605468 5.863281l-19.722657 10.441407c-7.644531 4.046874-16.21875 6.171874-24.863281 6.171874zm0 0"/><path d="m82.542969 196.433594c-10.285157 0-20.5-3.019532-29.410157-8.96875l-13.019531-8.679688c-6.863281-4.570312-14.839843-6.984375-23.082031-6.984375h-10.203125c-3.773437 0-6.828125-3.058593-6.828125-6.828125 0-3.769531 3.054688-6.828125 6.828125-6.828125h10.203125c10.941406 0 21.542969 3.210938 30.65625 9.28125l13.019531 8.679688c11.4375 7.621093 25.730469 8.769531 38.226563 3.09375l25.351562-11.527344c6.859375-3.117187 14.460938-4.761719 21.992188-4.761719.160156 0 .316406.003906.46875.003906 3.773437.03125 6.796875 3.113282 6.765625 6.886719-.035157 3.746094-3.085938 6.765625-6.828125 6.765625-.132813.007813-.273438-.003906-.40625-.003906-5.597656 0-11.246094 1.222656-16.339844 3.535156l-25.351562 11.527344c-7.082032 3.21875-14.582032 4.808594-22.042969 4.808594zm0 0"/><path d="m210.90625 368.355469c-7.816406 0-15.632812-1.707031-22.828125-5.132813l-24.832031-11.828125c-6.085938-2.898437-12.894532-4.21875-19.574219-3.746093-3.707031.273437-7.015625-2.597657-7.269531-6.363282-.246094-3.761718 2.601562-7.015625 6.363281-7.265625 9.097656-.601562 18.160156 1.148438 26.347656 5.046875l24.832031 11.828125c11.21875 5.34375 24.460938 5.050781 35.441407-.753906l19.71875-10.4375c9.214843-4.875 19.589843-7.453125 29.996093-7.453125h7.53125c3.773438 0 6.828126 3.058594 6.828126 6.828125s-3.054688 6.828125-6.828126 6.828125h-7.53125c-8.195312 0-16.355468 2.027344-23.609374 5.863281l-19.71875 10.4375c-7.730469 4.09375-16.300782 6.148438-24.867188 6.148438zm0 0"/><path d="m82.558594 367.386719c-10.511719 0-20.640625-3.066407-29.425782-8.925781l-13.019531-8.679688c-6.863281-4.574219-14.847656-6.988281-23.082031-6.988281h-10.203125c-3.773437 0-6.828125-3.058594-6.828125-6.828125 0-3.769532 3.054688-6.824219 6.828125-6.824219h10.203125c10.941406 0 21.542969 3.207031 30.65625 9.28125l13.019531 8.679687c6.964844 4.652344 15.039063 6.953126 23.457031 6.597657 3.410157-.128907 6.933594 2.78125 7.089844 6.550781.152344 3.769531-2.78125 6.945312-6.554687 7.089844-.714844.035156-1.425781.046875-2.140625.046875zm0 0"/><path d="m210.910156 312.417969c-.878906 0-1.757812-.023438-2.640625-.066407-3.765625-.1875-6.664062-3.390624-6.476562-7.15625.191406-3.769531 3.3125-6.699218 7.15625-6.476562 7.109375.34375 14.15625-1.21875 20.433593-4.542969l19.722657-10.4375c9.210937-4.871093 19.585937-7.449219 29.992187-7.449219h7.535156c3.773438 0 6.824219 3.054688 6.824219 6.824219 0 3.773438-3.050781 6.828125-6.824219 6.828125h-7.535156c-8.191406 0-16.351562 2.027344-23.605468 5.863282l-19.722657 10.441406c-7.664062 4.058594-16.203125 6.171875-24.859375 6.171875zm0 0"/><path d="m82.542969 311.464844c-10.285157 0-20.492188-3.019532-29.410157-8.964844l-13.019531-8.679688c-6.863281-4.570312-14.839843-6.988281-23.082031-6.988281h-10.203125c-3.773437 0-6.828125-3.054687-6.828125-6.828125 0-3.769531 3.054688-6.824218 6.828125-6.824218h10.203125c10.941406 0 21.542969 3.210937 30.65625 9.28125l13.019531 8.679687c11.4375 7.617187 25.730469 8.765625 38.226563 3.089844l25.351562-11.523438c8.636719-3.929687 18.199219-5.484375 27.652344-4.460937 3.746094.398437 6.460938 3.761718 6.0625 7.507812-.402344 3.742188-3.742188 6.476563-7.515625 6.066406-7.023437-.742187-14.125.394532-20.546875 3.3125l-25.351562 11.527344c-7.074219 3.21875-14.582032 4.804688-22.042969 4.804688zm0 0"/><path d="m416.3125 170.734375h-27.308594c-3.773437 0-6.824218-3.054687-6.824218-6.824219 0-3.769531 3.050781-6.828125 6.824218-6.828125h27.308594c3.773438 0 6.828125 3.058594 6.828125 6.828125 0 3.769532-3.054687 6.824219-6.828125 6.824219zm0 0"/><path d="m259.300781 41.03125c-3.773437 0-6.828125-3.058594-6.828125-6.828125v-27.308594c0-3.769531 3.054688-6.8242185 6.828125-6.8242185 3.773438 0 6.824219 3.0546875 6.824219 6.8242185v27.308594c0 3.769531-3.050781 6.828125-6.824219 6.828125zm0 0"/><path d="m347.519531 71.609375c-1.480469 0-2.96875-.476563-4.222656-1.464844-2.957031-2.332031-3.464844-6.625-1.132813-9.585937l16.898438-21.449219c2.339844-2.957031 6.628906-3.464844 9.585938-1.140625 2.960937 2.332031 3.46875 6.628906 1.136718 9.585938l-16.902344 21.449218c-1.34375 1.710938-3.34375 2.605469-5.363281 2.605469zm0 0"/><path d="m164.945312 93.835938c-1.464843 0-2.941406-.46875-4.1875-1.4375l-21.546874-16.769532c-2.972657-2.316406-3.503907-6.605468-1.191407-9.582031 2.3125-2.980469 6.601563-3.511719 9.578125-1.191406l21.546875 16.769531c2.972657 2.316406 3.507813 6.601562 1.195313 9.578125-1.347656 1.730469-3.359375 2.632813-5.394532 2.632813zm0 0"/></svg>