<svg height="394pt" viewBox="0 0 394 394.87488" width="394pt" xmlns="http://www.w3.org/2000/svg"><path d="m327.257812 271.992188h-20.546874c-3.773438 0-6.828126-3.058594-6.828126-6.828126 0-3.769531 3.054688-6.824218 6.828126-6.824218h20.546874c29.617188 0 53.714844-23.980469 53.714844-53.453125 0-24.859375-16.988281-46.226563-41.308594-51.957031-3.28125-.769532-5.5-3.820313-5.238281-7.175782.253907-3.222656.425781-6.46875.425781-9.753906 0-67.460938-55.132812-122.34375-122.90625-122.34375-58.226562 0-108.882812 41.164062-120.445312 97.882812-.648438 3.171876-3.429688 5.453126-6.660156 5.464844-39.011719.140625-70.746094 31.835938-70.746094 70.660156 0 38.96875 31.851562 70.671876 71.003906 70.671876h17.394532c3.773437 0 6.824218 3.058593 6.824218 6.828124 0 3.769532-3.050781 6.824219-6.824218 6.824219h-17.394532c-46.683594 0-84.660156-37.828125-84.660156-84.324219 0-44.488281 34.90625-81.136718 78.867188-84.121093 14.839843-60.3125 69.765624-103.542969 132.640624-103.542969 75.300782 0 136.558594 61.007812 136.558594 135.996094 0 1.746094-.039062 3.484375-.117187 5.210937 27.5 8.976563 46.238281 34.394531 46.238281 63.679688-.003906 37-30.222656 67.105469-67.367188 67.105469zm0 0"/><path d="m50.097656 195.304688c-3.773437 0-6.828125-3.058594-6.828125-6.828126 0-28.601562 23.273438-51.875 51.878907-51.875 3.773437 0 6.828124 3.058594 6.828124 6.828126 0 3.769531-3.054687 6.824218-6.828124 6.824218-21.082032 0-38.226563 17.148438-38.226563 38.222656 0 3.769532-3.050781 6.828126-6.824219 6.828126zm0 0"/><path d="m258.96875 285.648438c-.898438 0-1.8125-.179688-2.683594-.554688-3.46875-1.484375-5.074218-5.5-3.589844-8.964844l20.480469-47.789062c1.480469-3.464844 5.519531-5.070313 8.960938-3.582032 3.464843 1.484376 5.074219 5.496094 3.585937 8.964844l-20.480468 47.785156c-1.105469 2.585938-3.625 4.140626-6.273438 4.140626zm0 0"/><path d="m163.398438 251.515625c-.902344 0-1.8125-.179687-2.6875-.558594-3.464844-1.480469-5.074219-5.496093-3.585938-8.960937l20.476562-47.789063c1.488282-3.46875 5.515626-5.0625 8.960938-3.582031 3.46875 1.484375 5.074219 5.496094 3.589844 8.960938l-20.480469 47.789062c-1.109375 2.585938-3.628906 4.140625-6.273437 4.140625zm0 0"/><path d="m190.703125 312.953125c-.898437 0-1.8125-.175781-2.6875-.554687-3.464844-1.484376-5.074219-5.496094-3.585937-8.964844l20.480468-47.785156c1.480469-3.464844 5.519532-5.066407 8.960938-3.585938 3.464844 1.484375 5.074218 5.5 3.585937 8.964844l-20.480469 47.789062c-1.105468 2.582032-3.625 4.136719-6.273437 4.136719zm0 0"/><path d="m218.011719 367.566406c-.902344 0-1.8125-.175781-2.6875-.554687-3.464844-1.484375-5.074219-5.496094-3.585938-8.964844l20.476563-47.785156c1.480468-3.464844 5.519531-5.074219 8.960937-3.582031 3.46875 1.480468 5.074219 5.496093 3.589844 8.960937l-20.480469 47.789063c-1.109375 2.582031-3.628906 4.136718-6.273437 4.136718zm0 0"/><path d="m156.570312 394.875c-.898437 0-1.8125-.179688-2.6875-.554688-3.464843-1.484374-5.074218-5.5-3.585937-8.964843l20.480469-47.785157c1.484375-3.46875 5.523437-5.074218 8.960937-3.585937 3.464844 1.484375 5.070313 5.496094 3.585938 8.964844l-20.480469 47.785156c-1.109375 2.585937-3.625 4.140625-6.273438 4.140625zm0 0"/><path d="m122.4375 326.609375c-.898438 0-1.8125-.179687-2.6875-.558594-3.464844-1.480469-5.074219-5.496093-3.585938-8.960937l20.480469-47.789063c1.476563-3.464843 5.519531-5.070312 8.957031-3.582031 3.46875 1.480469 5.074219 5.496094 3.589844 8.960938l-20.480468 47.789062c-1.109376 2.585938-3.628907 4.140625-6.273438 4.140625zm0 0"/></svg>