<svg height="394pt" viewBox="0 -10 394.1888 394" width="394pt" xmlns="http://www.w3.org/2000/svg"><path d="m326.820312 272.085938h-20.546874c-3.773438 0-6.828126-3.058594-6.828126-6.828126 0-3.769531 3.054688-6.824218 6.828126-6.824218h20.546874c29.617188 0 53.714844-23.980469 53.714844-53.453125 0-24.859375-16.988281-46.226563-41.308594-51.957031-3.28125-.769532-5.5-3.820313-5.238281-7.175782.253907-3.222656.425781-6.46875.425781-9.753906 0-67.460938-55.132812-122.34375-122.90625-122.34375-58.226562 0-108.878906 41.164062-120.445312 97.886719-.648438 3.167969-3.429688 5.453125-6.660156 5.460937-39.011719.140625-70.746094 31.835938-70.746094 70.660156 0 38.96875 31.851562 70.671876 71.003906 70.671876h17.394532c3.773437 0 6.824218 3.058593 6.824218 6.828124 0 3.769532-3.050781 6.828126-6.824218 6.828126h-17.394532c-46.683594 0-84.660156-37.832032-84.660156-84.328126 0-44.488281 34.90625-81.136718 78.867188-84.121093 14.839843-60.3125 69.765624-103.542969 132.640624-103.542969 75.300782 0 136.558594 61.007812 136.558594 136 0 1.742188-.039062 3.480469-.117187 5.207031 27.5 8.980469 46.238281 34.394531 46.238281 63.679688-.003906 37-30.222656 67.105469-67.367188 67.105469zm0 0"/><path d="m49.660156 195.398438c-3.773437 0-6.828125-3.054688-6.828125-6.828126 0-28.601562 23.273438-51.875 51.878907-51.875 3.773437 0 6.828124 3.058594 6.828124 6.828126 0 3.769531-3.054687 6.824218-6.828124 6.824218-21.082032 0-38.226563 17.148438-38.226563 38.222656 0 3.773438-3.050781 6.828126-6.824219 6.828126zm0 0"/><path d="m227.8125 237.953125c-13.171875 0-23.894531-10.71875-23.894531-23.894531 0-13.171875 10.722656-23.894532 23.894531-23.894532 13.175781 0 23.894531 10.722657 23.894531 23.894532 0 13.175781-10.71875 23.894531-23.894531 23.894531zm0-34.132813c-5.648438 0-10.238281 4.589844-10.238281 10.238282 0 5.648437 4.589843 10.242187 10.238281 10.242187s10.238281-4.59375 10.238281-10.242187c0-5.648438-4.589843-10.238282-10.238281-10.238282zm0 0"/><path d="m180.027344 374.484375c-13.175782 0-23.894532-10.71875-23.894532-23.890625 0-13.175781 10.71875-23.894531 23.894532-23.894531 13.171875 0 23.890625 10.71875 23.890625 23.894531 0 13.171875-10.71875 23.890625-23.890625 23.890625zm0-34.132813c-5.648438 0-10.242188 4.59375-10.242188 10.242188 0 5.644531 4.59375 10.238281 10.242188 10.238281 5.644531 0 10.238281-4.59375 10.238281-10.238281 0-5.648438-4.59375-10.242188-10.238281-10.242188zm0 0"/><path d="m166.371094 292.566406c-13.171875 0-23.890625-10.71875-23.890625-23.894531 0-13.171875 10.71875-23.894531 23.890625-23.894531 13.175781 0 23.894531 10.722656 23.894531 23.894531 0 13.175781-10.71875 23.894531-23.894531 23.894531zm0-34.132812c-5.644532 0-10.238282 4.589844-10.238282 10.238281s4.59375 10.242187 10.238282 10.242187c5.648437 0 10.242187-4.59375 10.242187-10.242187s-4.59375-10.238281-10.242187-10.238281zm0 0"/><path d="m241.464844 313.046875c-13.171875 0-23.890625-10.71875-23.890625-23.894531 0-13.171875 10.71875-23.894532 23.890625-23.894532 13.175781 0 23.894531 10.722657 23.894531 23.894532 0 13.175781-10.71875 23.894531-23.894531 23.894531zm0-34.132813c-5.644532 0-10.238282 4.589844-10.238282 10.238282 0 5.648437 4.59375 10.238281 10.238282 10.238281 5.648437 0 10.242187-4.589844 10.242187-10.238281 0-5.648438-4.59375-10.238282-10.242187-10.238282zm0 0"/></svg>