<svg height="411pt" viewBox="-8 0 411 411.22816" width="411pt" xmlns="http://www.w3.org/2000/svg"><path d="m115.210938 411.226562c-1.484376 0-2.96875-.476562-4.210938-1.453124-2.632812-2.0625-3.382812-5.730469-1.773438-8.660157l55.960938-101.816406h-37.074219c-2.78125 0-5.285156-1.683594-6.328125-4.261719-1.042968-2.582031-.417968-5.535156 1.578125-7.46875l131.785157-127.625c2.355468-2.28125 6.011718-2.570312 8.695312-.671875 2.679688 1.898438 3.628906 5.4375 2.257812 8.421875l-41.597656 90.648438h41.972656c2.8125 0 5.335938 1.726562 6.359376 4.34375 1.027343 2.621094.335937 5.597656-1.734376 7.503906l-151.269531 139.238281c-1.300781 1.195313-2.957031 1.800781-4.621093 1.800781zm29.765624-125.582031h31.753907c2.414062 0 4.648437 1.273438 5.875 3.351563 1.226562 2.078125 1.269531 4.648437.105469 6.761718l-41.417969 75.351563 107.683593-99.117187h-35.117187c-2.328125 0-4.492187-1.183594-5.746094-3.140626-1.257812-1.960937-1.425781-4.421874-.457031-6.535156l30.871094-67.273437zm0 0"/><path d="m326.941406 271.992188h-20.546875c-3.769531 0-6.828125-3.058594-6.828125-6.828126 0-3.769531 3.058594-6.824218 6.828125-6.824218h20.546875c29.617188 0 53.714844-23.980469 53.714844-53.453125 0-24.859375-16.988281-46.226563-41.316406-51.957031-3.277344-.769532-5.507813-3.824219-5.238282-7.183594.257813-3.21875.425782-6.464844.425782-9.746094 0-67.460938-55.132813-122.34375-122.902344-122.34375-58.234375 0-108.882812 41.164062-120.441406 97.882812-.644532 3.171876-3.429688 5.453126-6.664063 5.464844-39.011719.140625-70.75 31.835938-70.75 70.660156 0 38.96875 31.851563 70.671876 71.007813 70.671876h17.398437c3.769531 0 6.824219 3.058593 6.824219 6.828124 0 3.769532-3.054688 6.824219-6.824219 6.824219h-17.398437c-46.683594 0-84.664063-37.828125-84.664063-84.324219 0-44.488281 34.90625-81.136718 78.875-84.117187 14.828125-60.316406 69.757813-103.546875 132.636719-103.546875 75.296875 0 136.558594 61.007812 136.558594 135.996094 0 1.746094-.042969 3.484375-.117188 5.210937 27.5 8.980469 46.242188 34.394531 46.242188 63.679688-.003906 37-30.222656 67.105469-67.367188 67.105469zm0 0"/><path d="m49.78125 195.304688c-3.773438 0-6.828125-3.058594-6.828125-6.828126 0-28.601562 23.269531-51.875 51.875-51.875 3.769531 0 6.824219 3.058594 6.824219 6.828126 0 3.769531-3.054688 6.824218-6.824219 6.824218-21.074219 0-38.222656 17.148438-38.222656 38.222656 0 3.769532-3.054688 6.828126-6.824219 6.828126zm0 0"/></svg>